<?xml version="1.0" encoding="UTF-8" standalone="no"?>
<!-- Created with Inkscape (http://www.inkscape.org/) -->

<svg
   width="184.823mm"
   height="136.87199mm"
   viewBox="0 0 184.823 136.872"
   version="1.1"
   id="svg1"
   xml:space="preserve"
   xmlns="http://www.w3.org/2000/svg"
   xmlns:svg="http://www.w3.org/2000/svg"><defs
     id="defs1" /><g
     id="layer1"
     transform="translate(-12.310995,-64.711747)"><path
       id="path1"
       style="fill:#000000"
       d="m 39.209493,64.713363 c -0.07075,-0.0029 -0.143098,-0.002 -0.216524,0.0031 -1.108638,0.1716 -1.751119,1.1886 -2.518193,1.90221 v 22.68647 c -6.583449,4.632238 -13.154537,9.283065 -19.77657,13.860137 -1.417777,1.02052 -2.924911,1.98427 -4.061251,3.32951 -0.416694,0.77253 -0.484871,1.84372 0.09767,2.55954 1.020495,1.20033 2.456436,1.93515 3.767212,2.76882 6.647349,3.88107 13.320979,7.71718 19.972941,11.59051 v 36.84064 c -4.195404,2.6225 -8.393251,5.242 -12.586312,7.86825 -2.672431,1.71019 -5.416505,3.31969 -7.968506,5.20899 -0.952802,0.68314 -1.782211,1.8751 -1.387512,3.0918 0.422138,1.54019 2.369334,2.46437 3.786849,1.64073 5.547284,-3.28015 10.989152,-6.73496 16.499252,-10.07691 0.45928,-0.11529 1.494737,-1.34089 1.431437,-0.339 0.220012,4.67871 0.197399,9.36531 0.223759,14.04824 0.02754,5.13797 -0.06094,10.27875 0.117822,15.41457 0.103978,0.90043 -0.0171,1.97904 0.661975,2.68614 0.536395,0.5329 1.312741,0.75185 2.051038,0.78445 0.791836,0.0262 1.924684,-0.19228 2.072741,-1.12758 0.336705,-2.13513 0.30198,-4.30825 0.38809,-6.46318 0.177999,-8.64549 0.239095,-17.29304 0.355534,-25.9395 l 1.547193,1.14774 c 4.969195,3.65105 10.080811,7.11108 15.325679,10.35389 1.057069,0.59776 2.069018,1.3311 3.228227,1.71152 1.630171,-0.0806 2.974411,-1.97916 2.386417,-3.5357 -0.47302,-1.10373 -1.561973,-1.74914 -2.459281,-2.47892 -5.288996,-3.84967 -10.793016,-7.39363 -16.095658,-11.22464 -0.323029,-0.40388 -1.535723,-0.75596 -1.233517,-1.24592 2.082156,-1.5443 4.326336,-2.85083 6.50813,-4.24677 0.233539,-0.10652 0.468847,-0.37389 0.701249,-0.38499 2.716906,1.77051 5.36629,3.65287 8.186064,5.2586 0.883442,0.50406 1.994086,0.93493 2.96261,0.3886 1.323537,-0.61604 2.113015,-2.53066 1.117761,-3.7486 -1.384165,-1.56924 -3.247702,-2.59105 -4.90306,-3.83801 -0.554994,-0.48806 -1.404124,-0.86625 -1.591117,-1.61592 0.569058,-0.47576 1.274014,-0.80754 1.896525,-1.22732 4.752893,-2.97568 9.513209,-5.94394 14.161409,-9.08162 1.383733,-0.80969 1.552266,-2.87813 0.535368,-4.04419 -0.702279,-0.74789 -1.678624,-1.15224 -2.52491,-1.71256 -9.859094,-5.86801 -19.825298,-11.55324 -29.749089,-17.31057 -0.06816,-9.29092 -0.136478,-18.5818 -0.204638,-27.872719 0.756383,-0.524646 1.51273,-1.049418 2.269112,-1.574064 5.602998,-3.909564 11.270043,-7.730586 16.754533,-11.806515 1.084176,-0.872207 2.29293,-1.652108 3.130041,-2.781226 0.244453,-0.794221 0.125075,-1.740087 -0.322461,-2.450496 -0.43543,-0.807453 -1.38824,-1.326325 -2.279964,-0.961182 -1.839957,0.635475 -3.432493,1.801185 -5.067391,2.828252 -4.79512,3.202619 -9.519989,6.508768 -14.279232,9.764261 -0.06665,-6.094018 -0.133338,-12.18807 -0.199988,-18.282088 -0.03936,-0.266154 0.06751,-0.603337 -0.06614,-0.823722 -0.81279,-0.602669 -1.584046,-1.499923 -2.645317,-1.543058 z M 151.04866,86.64019 c -1.64729,-0.02623 -3.29397,0.129632 -4.89789,0.520898 -3.46668,0.815838 -6.67514,2.989548 -8.38502,6.158797 -1.5237,2.7108 -2.1563,5.807383 -2.39365,8.879565 -0.29873,3.82424 -0.33711,7.66216 -0.48783,11.49387 -2.26486,0.0139 -4.53075,-0.0376 -6.79441,0.0491 -0.79422,0.0778 -1.90752,0.0323 -2.27687,0.91002 -0.42874,1.24656 -0.42575,2.61956 -0.19585,3.90726 0.0282,0.95798 1.03236,1.14454 1.7911,1.21594 2.5168,0.28941 5.05578,0.25721 7.58404,0.36587 v 49.78405 l 0.87591,0.3607 c 1.23785,0.41377 2.58937,0.41076 3.88039,0.32866 0.80283,-0.0488 1.9906,-0.19496 1.9637,-1.25574 0.28672,-2.56246 0.21077,-5.14917 0.26097,-7.72356 0.0495,-13.83751 0.0199,-27.67564 0.0279,-41.51323 3.81289,-0.0894 7.62921,-0.0873 11.43858,-0.28628 0.88732,-0.10397 1.86126,-0.036 2.65875,-0.48266 0.48928,-0.70204 0.46129,-1.62013 0.48989,-2.4443 -0.0471,-0.89893 -0.0201,-1.92494 -0.61288,-2.65772 -0.70581,-0.51413 -1.64776,-0.41739 -2.47633,-0.49919 -3.86795,-0.1041 -7.73805,-0.0419 -11.60705,-0.0589 0.0873,-2.53519 0.1622,-5.07089 0.2589,-7.60574 0.16575,-2.97528 0.3005,-6.02082 1.32395,-8.849071 0.61642,-1.746065 1.96707,-3.247759 3.74758,-3.840076 2.1218,-0.627138 4.39137,-0.476021 6.55464,-0.165881 1.58529,0.186545 3.038,0.898355 4.59713,1.189592 0.9171,0.31619 1.58495,-0.549384 1.50275,-1.403532 0.0285,-1.173817 0.15976,-2.406659 -0.24649,-3.531568 -0.73455,-1.33205 -2.27553,-1.924327 -3.68143,-2.273246 -1.60559,-0.338685 -3.25318,-0.547376 -4.90048,-0.573608 z m -39.08702,0.329178 c -0.68633,-0.01319 -1.37778,0.04554 -2.05207,0.12144 -0.66414,0.13279 -1.70702,0.183365 -1.76682,1.056266 -0.30856,2.331278 -0.24764,4.693695 -0.31264,7.040398 -0.1359,13.910658 -0.0797,27.822248 -0.0827,41.733368 0.0358,10.47626 0.0216,20.95367 0.21342,31.42857 -0.028,0.81836 -0.0493,1.81053 0.94155,2.05724 1.27026,0.35125 2.63217,0.27744 3.93309,0.15658 0.86909,0.0355 1.70535,-0.46352 1.603,-1.4273 0.2524,-2.89424 0.20465,-5.80457 0.25425,-8.70696 0.0842,-16.80216 0.0524,-33.60496 0.03,-50.40726 -0.0443,-6.86601 8.8e-4,-13.735175 -0.23409,-20.598228 -0.15385,-0.68901 0.20394,-1.746119 -0.5054,-2.143021 -0.65394,-0.212377 -1.33524,-0.297907 -2.02158,-0.311093 z m -23.264212,4.943885 c -1.389598,-0.04126 -2.9908,0.09087 -4.018876,1.138432 -1.027854,1.2867 -1.089844,3.066913 -0.920357,4.636409 0.200313,1.305839 0.582094,2.813226 1.780253,3.554826 0.665363,0.33986 1.428603,0.41721 2.164726,0.44131 1.394865,-0.0111 2.905366,-0.14977 4.071586,-0.98547 1.029049,-0.839667 0.938289,-2.261078 0.966349,-3.4556 -0.02914,-1.305104 0.06423,-2.68659 -0.456819,-3.911906 -0.845423,-1.058834 -2.309239,-1.316936 -3.586862,-1.418001 z m -52.417472,4.30258 c 0.03622,1.717001 0.0723,3.434105 0.108521,5.151107 0.109851,5.17494 0.0096,10.34949 -0.108521,15.52308 -2.298022,-1.32601 -4.597065,-2.65043 -6.894153,-3.97805 -2.805702,-1.6546 -5.669539,-3.22112 -8.374166,-5.03948 -1.04585,-0.47708 0.23057,-1.0167 0.670244,-1.41284 4.788414,-3.52374 9.723504,-6.841644 14.598075,-10.243817 z M 188.66652,112.94866 c -2.17261,0.003 -4.4475,0.15657 -6.41408,1.16375 -2.07619,1.27536 -3.82239,3.01489 -5.47977,4.78421 -1.18818,1.23583 -2.12534,2.67117 -3.03547,4.11499 -0.12047,-2.25413 -0.16037,-4.51398 -0.37621,-6.76186 -0.16755,-0.77739 -0.0463,-1.79584 -0.68678,-2.36213 -1.10493,-0.45975 -2.3456,-0.40901 -3.51968,-0.35191 -0.72234,0.1122 -1.66059,0.0657 -2.12907,0.71365 -0.37192,1.2019 -0.28803,2.49071 -0.36793,3.73465 -0.17269,8.04438 -0.0951,16.09139 -0.11834,24.13703 0.0212,8.78595 0.005,17.57352 0.21032,26.35757 -0.0622,0.79169 0.0364,1.6925 0.95188,1.92804 1.12263,0.32578 2.33108,0.26926 3.48764,0.20206 0.75981,-0.0902 1.97993,-0.0775 2.06293,-1.09606 0.27741,-1.89553 0.21225,-3.8214 0.26045,-5.73195 0.0541,-10.35429 0.021,-20.70882 0.03,-31.06322 1.74614,-2.61979 3.39733,-5.31299 5.3945,-7.75405 1.83578,-2.23194 4.05762,-4.43747 6.97632,-5.08186 2.61384,-0.59028 5.26082,0.19539 7.73855,0.99529 0.71909,0.27243 1.79425,0.49239 2.09392,-0.47129 0.48199,-1.32789 0.43593,-2.78816 0.28164,-4.17339 -0.0787,-0.81765 -0.37888,-1.68787 -1.19993,-2.02933 -1.88544,-0.98737 -4.06642,-1.18719 -6.16086,-1.25419 z m -99.982011,0.41858 c -0.728479,0.004 -1.461141,0.10317 -2.166793,0.2403 -0.902957,0.0543 -1.558158,0.72276 -1.475878,1.63659 -0.25165,3.19777 -0.201824,6.4103 -0.248564,9.61543 -0.05709,15.02198 -0.02509,30.04392 -0.03359,45.06599 l 0.876433,0.3607 c 1.325736,0.43369 2.773857,0.42354 4.151684,0.30127 0.868589,0.0177 1.792647,-0.443 1.711007,-1.43195 0.259357,-2.82505 0.195962,-5.66798 0.242362,-8.50181 0.04847,-15.52713 0.02031,-31.05445 0.02791,-46.58165 l -0.943612,-0.37362 c -0.688526,-0.24399 -1.412476,-0.33516 -2.140955,-0.33125 z m -46.41112,13.53819 c 4.16189,2.23221 8.236213,4.62406 12.338781,6.96288 3.449822,2.01672 6.957907,3.93859 10.337871,6.07199 0.448949,0.41361 1.775686,0.88256 1.310514,1.56993 -2.824145,1.9695 -5.768305,3.76159 -8.681124,5.59604 -1.819093,1.09682 -3.591569,2.28732 -5.479252,3.26078 -1.857544,-0.74476 -3.465809,-1.99486 -5.285982,-2.82205 -0.729838,-0.38471 -1.620924,-0.30232 -2.295467,0.16123 -1.114635,0.63467 -1.440831,2.14608 -0.887285,3.25975 0.554816,1.32765 1.898561,1.96976 3.010669,2.75229 l -0.897619,0.69659 c -1.201634,0.90405 -2.519599,1.63002 -3.818372,2.38125 v -1.21336 c 0.01763,-8.88415 -0.05728,-17.76892 0.102319,-26.65212 0.12474,-0.58778 -0.164188,-1.78498 0.244947,-2.0252 z" /></g></svg>
