<?xml version="1.0" encoding="UTF-8" standalone="no"?>
<!-- Created with Inkscape (http://www.inkscape.org/) -->

<svg
   version="1.1"
   id="svg1"
   width="451.38315"
   height="955.89166"
   viewBox="0 0 451.38315 955.89166"
   sodipodi:docname="Font Ajust222.svg"
   inkscape:version="1.4.3 (0d15f75, 2025-12-25)"
   xmlns:inkscape="http://www.inkscape.org/namespaces/inkscape"
   xmlns:sodipodi="http://sodipodi.sourceforge.net/DTD/sodipodi-0.dtd"
   xmlns="http://www.w3.org/2000/svg"
   xmlns:svg="http://www.w3.org/2000/svg">
  <defs
     id="defs1" />
  <sodipodi:namedview
     id="namedview1"
     pagecolor="#505050"
     bordercolor="#eeeeee"
     borderopacity="1"
     inkscape:showpageshadow="0"
     inkscape:pageopacity="0"
     inkscape:pagecheckerboard="0"
     inkscape:deskcolor="#505050"
     inkscape:zoom="0.70746528"
     inkscape:cx="287.64663"
     inkscape:cy="529.3546"
     inkscape:window-width="1920"
     inkscape:window-height="1017"
     inkscape:window-x="1912"
     inkscape:window-y="-8"
     inkscape:window-maximized="1"
     inkscape:current-layer="g1" />
  <g
     inkscape:groupmode="layer"
     inkscape:label="Image"
     id="g1"
     transform="translate(-176.01313,-46.113281)">
    <path
       id="path1"
       style="fill:#000000"
       d="m 368.22656,46.113281 c -3.8728,0.327171 -7.23204,2.670482 -10.51497,4.568781 C 353.78346,53.44734 352.30888,58.225771 350,62.228516 349.9792,114.65234 349.9584,167.07617 349.9376,219.5 c -26.47622,18.19709 -53.20686,36.02353 -79.76615,54.09987 -24.45371,16.65371 -49.02466,33.13634 -73.42765,49.8635 -5.93995,4.32691 -12.17097,8.35261 -17.56206,13.36475 -3.35238,5.19037 -3.82685,11.9468 -2.43817,17.85987 1.79302,6.21825 8.00545,9.42347 13.02844,12.74699 16.59116,9.82903 33.58606,18.95948 50.3469,28.49467 36.50561,20.51473 72.98959,41.06854 109.38109,61.78519 0,86.86068 0,173.72136 0,260.58204 -33.97443,21.29264 -68.46366,41.74824 -102.58722,62.79925 -14.91473,9.15598 -29.92158,18.16646 -44.83531,27.32041 -6.58263,4.099 -11.71743,11.46802 -10.91487,19.4948 0.65278,9.59325 9.67566,17.37929 19.20459,17.08866 6.4509,-0.0989 11.86276,-4.22762 17.35511,-7.10386 23.36988,-13.9293 46.45627,-28.32955 69.74096,-42.40097 16.85763,-10.20206 33.63103,-20.5478 50.43711,-30.83006 2.8548,-1.68465 1.04181,4.25043 1.65353,6.02261 0.87192,68.52117 -0.0213,137.05344 0.9866,205.57313 0.3531,4.9315 -0.56865,10.23464 1.9613,14.73243 2.93724,6.24548 9.26093,10.87402 16.2791,10.94302 5.48381,0.485 11.05961,-1.6149 14.6781,-5.80241 2.61825,-2.73609 4.90193,-6.17538 4.6139,-10.13455 0.85597,-24.11831 0.63738,-48.26062 0.79682,-72.39037 0.17359,-47.1482 -0.15294,-94.30268 0.68598,-141.44575 0.45575,-2.34247 -1.0823,-9.31375 2.81133,-5.57565 27.69036,18.4253 55.08984,37.28485 82.68097,55.85851 15.5073,10.3679 30.69068,21.22573 46.403,31.2832 4.06063,2.63718 8.69505,4.89367 13.67989,4.22869 8.56984,-0.23997 16.55156,-6.90319 17.72497,-15.4982 1.07403,-6.9445 -1.63662,-14.5956 -7.55494,-18.62857 -13.22351,-10.02234 -27.24781,-18.9298 -40.94206,-28.28605 -32.87896,-22.08044 -65.68871,-44.26365 -98.51511,-66.4221 18.63145,-11.48345 37.35434,-22.81784 56.03516,-34.22071 17.53349,11.87844 35.47477,23.14811 53.4892,34.27897 5.76039,3.22669 11.37049,7.29365 17.98447,8.48713 7.33994,0.42061 14.26923,-4.38893 17.90318,-10.53753 2.26042,-5.10181 2.22361,-11.19167 0.36338,-16.41216 -2.86049,-6.13067 -9.15071,-9.51556 -14.41727,-13.31208 -12.52249,-8.28938 -25.48783,-15.91189 -37.81843,-24.48747 1.08147,-2.44576 6.16917,-4.19614 8.75795,-6.30556 34.52622,-21.27202 69.24439,-42.23123 103.78305,-63.48261 5.29029,-3.28475 11.37293,-6.45023 13.78277,-12.5995 2.13157,-5.20301 2.26218,-11.31742 0.29781,-16.5807 -3.16531,-6.25509 -9.82609,-9.49055 -15.47737,-13.11725 C 577.37093,541.86514 544.03254,523.21352 510.78529,504.40351 470.14558,481.61515 429.69837,458.48437 389,435.80078 c 0,-65.53711 0,-131.07422 0,-196.61133 40.91415,-27.70768 81.67265,-55.64455 122.5706,-83.37623 11.13097,-7.70473 22.39875,-15.23649 33.16607,-23.44713 6.05004,-6.0766 6.40147,-16.4956 2.01162,-23.6116 -3.41741,-4.29491 -8.43394,-7.79139 -13.98992,-8.38667 -3.46405,-0.23797 -7.07277,0.24036 -9.90877,2.4001 -20.81574,12.95891 -40.98425,26.92373 -61.33849,40.58824 -23.08784,15.52569 -45.88651,31.48002 -69.05254,46.88856 -1.7237,1.37626 -3.71651,2.56765 -3.03197,-0.73096 -0.81747,-39.6873 -0.0995,-79.38868 -0.74075,-119.077421 -0.28491,-5.720127 0.2235,-12.216235 -3.92487,-16.791147 -3.99486,-4.911963 -10.40549,-7.075529 -16.53442,-7.531911 z M 350,265.89453 c -0.0719,45.62521 0.22454,91.25294 -0.37913,136.87551 -0.43645,3.07084 0.5804,8.13178 -0.86103,10.05019 -14.97047,-7.8568 -29.47966,-16.56086 -44.25984,-24.7675 -22.61853,-12.83865 -45.37049,-25.44512 -67.87233,-38.48742 -2.14194,-1.32563 -6.66956,-3.08649 -2.32591,-4.77623 24.39839,-16.98943 49.14034,-33.48004 73.64986,-50.30863 14.00682,-9.54232 28.02997,-19.06063 42.04838,-28.58592 z m 39,213.95899 c 34.67922,19.64827 69.30503,39.39128 104.08975,58.85301 26.02675,14.58415 51.86668,29.49888 77.92783,44.02199 -22.66282,14.2035 -45.62335,27.92452 -68.34789,42.02901 -13.62136,8.3857 -27.23566,16.78293 -40.81617,25.23466 -10.67269,-6.501 -21.34178,-13.01413 -31.79722,-19.85777 -5.41483,-3.39245 -12.28773,-5.31622 -18.42359,-2.67317 -7.04328,2.19964 -12.42984,8.87476 -12.64297,16.31303 -0.34133,6.47057 2.44802,13.17316 7.87006,16.90826 5.34654,4.32781 11.81295,7.05194 17.12262,11.38973 -7.89883,5.79502 -16.51014,10.57998 -24.79027,15.81678 -3.40364,2.10369 -6.82115,4.18549 -10.19215,6.34142 0,-71.45898 0,-142.91797 0,-214.37695 z" />
  </g>
</svg>
